<svg id="Layer_1" data-name="Layer 1" xmlns="http://www.w3.org/2000/svg" viewBox="0 0 316 324"><defs><style>.cls-1,.cls-3{fill:#e74c3c;}.cls-2{fill:#fff;}.cls-3{font-size:41px;font-family:Corbert-Regular, Corbert;}.cls-4{letter-spacing:-0.01em;}.cls-5{letter-spacing:0em;}</style></defs><title>Secret Santa</title><rect class="cls-1" x="165.25" y="39.5" width="98.5" height="51"/><path class="cls-2" d="M263.25,40V90h-97.5V40h97.5m1-1h-99.5V91h99.5V39Z"/><rect class="cls-1" x="57.75" y="39.5" width="98.5" height="51"/><path class="cls-2" d="M155.75,40V90H58.25V40h97.5m1-1H57.25V91h99.5V39Z"/><rect class="cls-1" x="165.25" y="100.5" width="82.5" height="122"/><path class="cls-2" d="M247.25,101V222h-81.5V101h81.5m1-1h-83.5V223h83.5V100Z"/><rect class="cls-1" x="73.75" y="100.5" width="82.5" height="122"/><path class="cls-2" d="M155.75,101V222H74.25V101h81.5m1-1H73.25V223h83.5V100Z"/><text class="cls-3" transform="translate(32 276.89)">Sec<tspan class="cls-4" x="73.88" y="0">r</tspan><tspan class="cls-5" x="88.15" y="0">et San</tspan><tspan class="cls-4" x="218.45" y="0">t</tspan><tspan x="234.27" y="0">a</tspan></text></svg>